<?xml version="1.0" encoding="UTF-8" standalone="no"?>
<!-- Created with Inkscape (http://www.inkscape.org/) -->

<svg
   xmlns:dc="http://purl.org/dc/elements/1.1/"
   xmlns:cc="http://creativecommons.org/ns#"
   xmlns:rdf="http://www.w3.org/1999/02/22-rdf-syntax-ns#"
   xmlns:svg="http://www.w3.org/2000/svg"
   xmlns="http://www.w3.org/2000/svg"
   version="1.1"
   width="744.09448"
   height="1052.3622"
   id="svg2">
  <defs
     id="defs4" />
  <metadata
     id="metadata7">
    <rdf:RDF>
      <cc:Work
         rdf:about="">
        <dc:format>image/svg+xml</dc:format>
        <dc:type
           rdf:resource="http://purl.org/dc/dcmitype/StillImage" />
        <dc:title></dc:title>
      </cc:Work>
    </rdf:RDF>
  </metadata>
  <g
     id="layer1">
    <path
       d="M 234.58336,763.06241 C 145.65652,721.4249 127.50229,622.54484 131.46317,505.77757 -90.588077,637.26243 141.46915,323.04004 173.22685,263.44515 192.74989,166.31075 215.4851,96.024112 257.60083,55.907335 335.0895,-17.903458 446.8795,-0.0179317 503.92722,67.006127 c 37.06441,43.546103 53.9548,138.649033 69.40591,190.251813 44.32465,78.83588 268.00259,377.62583 44.34168,248.00402 9.01102,119.15006 -20.29263,212.10793 -104.49005,259.4098 54.35704,20.92009 61.95056,42.51095 -1.20814,39.63872 -14.73559,33.21923 -35.93738,34.69516 -61.35648,15.46805 -35.96937,23.65513 -64.26595,-2.82723 -36.60768,-30.93606 -26.37507,5.3005 -53.61741,2.79554 -80.94935,-0.5156 27.72557,27.06589 4.4688,58.32692 -36.60767,29.90484 -26.37366,22.52015 -46.59038,18.51808 -60.3253,-13.40563 -60.47182,2.85854 -57.03785,-23.13168 -1.54678,-41.76367 z"
       id="path2996"
       style="fill:#266bc6;fill-opacity:1;stroke:none" />
    <text
       x="165.67998"
       y="996.28912"
       id="text2984"
       xml:space="preserve"
       style="font-size:123.6763916px;font-style:normal;font-weight:normal;line-height:125%;letter-spacing:0px;word-spacing:0px;fill:#266bc6;fill-opacity:1;stroke:none;font-family:Sans"><tspan
         x="165.67998"
         y="996.28912"
         id="tspan2986"
         style="font-style:normal;font-variant:normal;font-weight:bold;font-stretch:normal;fill:#266bc6;fill-opacity:1;font-family:'Intro ';-inkscape-font-specification:'Intro '">pineb</tspan></text>
    <path
       d="m 231.96875,733.28125 c -4.56628,8e-5 -7.90501,0.31015 -10.03125,0.9375 -3.13714,0.94121 -5.518,2.2368 -7.15625,3.875 -1.63829,1.60349 -2.77884,3.72234 -3.40625,6.40625 -0.62744,2.64919 -0.93751,7.36282 -0.9375,14.125 -1e-5,4.14802 -0.15866,7.07692 -0.4375,8.75 -0.34858,2.23088 -0.96513,4.09494 -1.90625,5.59375 -0.94115,1.46403 -2.08531,2.49761 -3.375,3.125 -1.28971,0.62746 -3.20545,1.01686 -5.75,1.15625 l 0,12.53125 c 3.20683,0.17431 5.59129,0.87378 7.125,2.09375 1.56855,1.18515 2.73314,3.18022 3.5,5.96875 0.5577,1.91714 0.84374,6.08634 0.84375,12.5 -1e-5,5.50738 0.28242,9.51794 0.875,12.0625 0.59255,2.5794 1.76075,4.75714 3.46875,6.5 1.74282,1.74282 3.86528,2.98673 6.375,3.71875 2.50967,0.76683 6.10679,1.12498 10.8125,1.125 l 2.78125,0 0,-12.53125 c -3.76458,-10e-6 -6.22476,-0.23076 -7.375,-0.71875 -1.11545,-0.45315 -1.94232,-1.15623 -2.5,-2.0625 -0.55774,-0.90629 -0.84378,-2.51195 -0.84375,-4.8125 -3e-5,-1.60342 -0.13103,-5.27625 -0.375,-11.0625 -0.20917,-3.79939 -0.64664,-6.82804 -1.34375,-9.09375 -0.69716,-2.26568 -1.70671,-4.21267 -3.03125,-5.78125 -1.28973,-1.60339 -2.97471,-2.97109 -5.03125,-4.15625 2.33539,-1.49882 4.07206,-2.94944 5.1875,-4.34375 1.15025,-1.39424 2.08048,-3.15494 2.8125,-5.28125 0.73197,-2.16109 1.16944,-4.98663 1.34375,-8.4375 0.31368,-6.13476 0.49997,-10.27271 0.5,-12.46875 -3e-5,-2.16107 0.25837,-3.69102 0.78125,-4.5625 0.52282,-0.90622 1.32566,-1.58165 2.40625,-2 1.11539,-0.45307 3.5996,-0.65618 7.46875,-0.65625 l 0,-12.5 -2.78125,0 z"
       transform="matrix(1.6968083,0,0,1.6968083,-226.21737,-376.32617)"
       id="path2992"
       style="font-size:29.74453926px;font-style:normal;font-weight:normal;line-height:125%;letter-spacing:0px;word-spacing:0px;fill:#266bc6;fill-opacity:1;stroke:none;font-family:Sans" />
    <path
       d="m 231.96875,733.28125 c -4.56628,8e-5 -7.90501,0.31015 -10.03125,0.9375 -3.13714,0.94121 -5.518,2.2368 -7.15625,3.875 -1.63829,1.60349 -2.77884,3.72234 -3.40625,6.40625 -0.62744,2.64919 -0.93751,7.36282 -0.9375,14.125 -1e-5,4.14802 -0.15866,7.07692 -0.4375,8.75 -0.34858,2.23088 -0.96513,4.09494 -1.90625,5.59375 -0.94115,1.46403 -2.08531,2.49761 -3.375,3.125 -1.28971,0.62746 -3.20545,1.01686 -5.75,1.15625 l 0,12.53125 c 3.20683,0.17431 5.59129,0.87378 7.125,2.09375 1.56855,1.18515 2.73314,3.18022 3.5,5.96875 0.5577,1.91714 0.84374,6.08634 0.84375,12.5 -1e-5,5.50738 0.28242,9.51794 0.875,12.0625 0.59255,2.5794 1.76075,4.75714 3.46875,6.5 1.74282,1.74282 3.86528,2.98673 6.375,3.71875 2.50967,0.76683 6.10679,1.12498 10.8125,1.125 l 2.78125,0 0,-12.53125 c -3.76458,-10e-6 -6.22476,-0.23076 -7.375,-0.71875 -1.11545,-0.45315 -1.94232,-1.15623 -2.5,-2.0625 -0.55774,-0.90629 -0.84378,-2.51195 -0.84375,-4.8125 -3e-5,-1.60342 -0.13103,-5.27625 -0.375,-11.0625 -0.20917,-3.79939 -0.64664,-6.82804 -1.34375,-9.09375 -0.69716,-2.26568 -1.70671,-4.21267 -3.03125,-5.78125 -1.28973,-1.60339 -2.97471,-2.97109 -5.03125,-4.15625 2.33539,-1.49882 4.07206,-2.94944 5.1875,-4.34375 1.15025,-1.39424 2.08048,-3.15494 2.8125,-5.28125 0.73197,-2.16109 1.16944,-4.98663 1.34375,-8.4375 0.31368,-6.13476 0.49997,-10.27271 0.5,-12.46875 -3e-5,-2.16107 0.25837,-3.69102 0.78125,-4.5625 0.52282,-0.90622 1.32566,-1.58165 2.40625,-2 1.11539,-0.45307 3.5996,-0.65618 7.46875,-0.65625 l 0,-12.5 -2.78125,0 z"
       transform="matrix(-1.6968083,0,0,-1.6968083,954.85518,2282.6255)"
       id="path2994"
       style="font-size:29.74453926px;font-style:normal;font-weight:normal;line-height:125%;letter-spacing:0px;word-spacing:0px;fill:#266bc6;fill-opacity:1;stroke:none;font-family:Sans" />
  </g>
</svg>
