<svg version="1" xmlns="http://www.w3.org/2000/svg" width="21.333" height="21.333" viewBox="0 0 16.000000 16.000000"><path d="M1.326 8.004V16h3.717l-.002-3.173c0-1.744.002-3.189.006-3.212.01-.036.17-.039 2.956-.039h2.947v3.2c0 1.761.007 3.201.018 3.203.01 0 .846.007 1.859.012l1.842.009-.002-7.99c-.002-5.303-.01-7.991-.025-7.996-.012-.002-.846-.007-1.852-.005h-1.829l-.006 3.338a282.06 282.06 0 0 1-.016 3.347c-.019.016-5.864.011-5.88-.007-.01-.01-.016-1.516-.018-3.347V.01L3.184.006 1.326.005v7.999z"/></svg>